<?xml version="1.0" encoding="utf-8"?>
<!-- Generator: Adobe Illustrator 25.4.1, SVG Export Plug-In . SVG Version: 6.00 Build 0)  -->
<svg version="1.1" id="ECHODB_00000138566479231642032170000004023942904232490393_"
	 xmlns="http://www.w3.org/2000/svg" xmlns:xlink="http://www.w3.org/1999/xlink" x="0px" y="0px" viewBox="0 0 980 265.8"
	 style="enable-background:new 0 0 980 265.8;" xml:space="preserve">
<style type="text/css">
	.st0{fill:#FFFFFF;}
	.st1{fill:#00CFFF;}
</style>
<g id="ECHODB">
	<g id="ECHODB_00000144299140324009455990000015301386660107768485_">
		<path id="B" class="st0" d="M943.3,122.8c18-6.8,24.2-20.3,24.2-35.1c0-30.4-25-45.8-57.3-45.8h-44.8c-0.9,0-1.7,0.1-2.5,0.2
			h-16.8v19.1v143.7V224h19.3h15.9h31.5c44.2,0,67.1-21.6,67.1-53.1C980,150.3,970.9,133.2,943.3,122.8z M933.4,91.8
			c0,12.8-8.8,21.3-23.2,21.3h-28.9V71.5h28.9C924.5,71.5,933.4,78.8,933.4,91.8z M912.8,194.3h-31.5v-54.4h31.5
			c24.5,0,33.1,13.5,33.1,27.8C945.9,181.8,937,194.3,912.8,194.3z"/>
		<path id="D_00000178169460331626814000000011511881834342217871_" class="st1" d="M816.3,132.9c0-50.3-17.6-96.6-47-132.9
			L746,18.9c25.2,31.1,40.4,70.8,40.4,114c0,43.2-15.2,82.9-40.4,114.1l23.3,18.9C798.6,229.5,816.3,183.2,816.3,132.9z"/>
		<path id="D" class="st1" d="M756.5,132.1c0-35.7-12.4-68.5-33-94.4l-23.2,18.9c16.5,20.8,26.3,47.1,26.3,75.6
			c0,29.3-10.4,56.2-27.7,77.2l23.2,18.9C743.6,202,756.5,168.5,756.5,132.1z"/>
		<path id="O" class="st0" d="M605.5,224.1c-50.3,0-91.2-40.9-91.2-91.2s40.9-91.2,91.2-91.2c50.3,0,91.2,40.9,91.2,91.2
			S655.8,224.1,605.5,224.1z M605.5,71.6c-33.8,0-61.3,27.5-61.3,61.3c0,33.8,27.5,61.3,61.3,61.3c33.8,0,61.3-27.5,61.3-61.3
			C666.8,99.1,639.3,71.6,605.5,71.6z"/>
		<path id="H" class="st0" d="M449.7,41.7c0,19.7,0,57.7,0,77.8h-78c0-21.8,0-56.3,0-77.8h-34.9c0,45.9,0,136.5,0,182.5h34.9
			c0-20,0-54.6,0-74.9h78c0,20.5,0,54.8,0,74.9h34.6c0-43.5,0-138.9,0-182.5H449.7z"/>
		<path id="C" class="st0" d="M245.3,194.2c-33.8,0-61.3-27.5-61.3-61.3c0-33.8,27.5-61.3,61.3-61.3c14.3,0,27.4,4.9,37.9,13.2
			l23.6-19.2c-16.2-14.8-37.8-23.9-61.5-23.9c-50.3,0-91.2,40.9-91.2,91.2s40.9,91.2,91.2,91.2c23.7,0,45.3-9.1,61.5-23.9L283.2,181
			C272.7,189.3,259.6,194.2,245.3,194.2z"/>
		<path id="E" class="st0" d="M124.1,72.4V41.7c-30.5,0-93.8,0-124.1,0c0,58.6,0,123.9,0,182.5c29.1,0,94.7,0,124.1,0v-30.8
			c-9.5,0-77.8,0-88.9,0v-45.1h88.9v-30.8H35.2V72.4H124.1z"/>
	</g>
</g>
</svg>
